<?xml version="1.0" standalone="no"?><!DOCTYPE svg PUBLIC "-//W3C//DTD SVG 1.1//EN" "http://www.w3.org/Graphics/SVG/1.1/DTD/svg11.dtd"><svg class="icon" width="200px" height="200.00px" viewBox="0 0 1024 1024" version="1.1" xmlns="http://www.w3.org/2000/svg"><path fill="#000" d="M702.872483 650.845638c8.375839-13.798658 204.993289-339.651007 181.04698-485.583893C871.516779 89.879195 796.939597 0 512 0 227.006711 0 152.42953 89.879195 140.080537 165.261745c-23.946309 145.932886 172.671141 471.838926 179.597315 482.630872 1.395973 3.758389 33.288591 93.154362-29.422819 176.805369-76.241611 101.691275-32.107383 167.57047-30.228188 170.362416l2.95302 4.241611 4.778523 1.932886c2.308725 0.912752 57.879195 22.711409 208.590604 22.711409 11.436242 0 23.409396-0.161074 35.275168-0.42953 12.563758 0.268456 24.536913 0.42953 35.973154 0.42953 0 0 0 0 0 0 150.711409 0 206.281879-21.798658 208.590604-22.711409l4.778523-1.932886 2.95302-4.241611c1.879195-2.738255 46.013423-68.671141-30.228188-170.362416C671.033557 741.100671 702.926174 651.704698 702.872483 650.845638zM180.456376 253.744966l0.161074-0.107383C173.637584 222.281879 170.684564 193.66443 174.389262 170.899329c18.469799-112.483221 193.771812-136.107383 337.557047-136.107383 143.838926 0 319.14094 23.624161 337.610738 136.107383 3.758389 22.765101 0.751678 51.436242-6.174497 82.845638l-57.932886 0c0 0-52.241611 0.751678-74.95302 9.66443-31.355705 12.348993-36.348993 25.932886-19.758389 69.583893 31.892617 84.080537-0.644295 178.308725-27.543624 178.95302-43.489933 1.020134-42.040268-86.657718-32.375839-117.583893 9.66443-30.926174 19.328859-76.61745-0.053691-98.416107C611.436242 274.201342 597.315436 268.348993 567.516779 265.610738 520.107383 261.315436 447.033557 327.087248 369.879195 320.966443 248.107383 311.302013 180.456376 253.744966 180.456376 253.744966zM737.718121 970.845638c-16.805369 4.939597-73.342282 18.416107-190.120805 18.416107-11.167785 0-22.926174-0.161074-35.973154-0.42953-141.04698 3.167785-206.979866-12.61745-225.288591-17.986577C280.107383 956.939597 267.704698 912.751678 318.067114 845.583893c1.288591-1.66443 2.255034-3.38255 3.436242-5.100671 51.812081 14.926174 214.33557 52.563758 380.993289 0.053691 1.181208 1.66443 2.147651 3.38255 3.436242 5.04698C756.402685 912.912752 743.838926 957.154362 737.718121 970.845638z" /></svg>