<?xml version="1.0" standalone="no"?><!DOCTYPE svg PUBLIC "-//W3C//DTD SVG 1.1//EN" "http://www.w3.org/Graphics/SVG/1.1/DTD/svg11.dtd"><svg t="1508124984048" class="icon" style="" viewBox="0 0 1024 1024" version="1.1" xmlns="http://www.w3.org/2000/svg" p-id="5280" xmlns:xlink="http://www.w3.org/1999/xlink" width="200" height="200"><defs><style type="text/css"></style></defs><path d="M896 1024H128c-70.7 0-128-57.3-128-128v-768c0-70.7 57.3-128 128-128h768c70.7 0 128 57.3 128 128v768c0 70.7-57.3 128-128 128z m64-896c0-35.3-28.7-64-64-64H128c-35.3 0-64 28.7-64 64V320h85.9c3-59.7 30.1-106.7 63.4-106.7s60.5 47 63.4 106.7h65.2c3-59.7 30.1-106.7 63.4-106.7s60.5 47 63.4 106.7h257.2c3-59.7 30.1-106.7 63.4-106.7s60.5 47 63.4 106.7H960v-192z m0 256H846c-10.6 37.8-31.9 64-56.7 64s-46.1-26.2-56.7-64H462c-10.6 37.8-31.9 64-56.7 64s-46.1-26.2-56.7-64H270c-10.6 37.8-31.9 64-56.7 64s-46.1-26.2-56.7-64H64v277.3h280c7.6-49.1 32-85.3 61.3-85.3s53.6 36.2 61.3 85.3H536c7.6-49.1 32-85.3 61.3-85.3 29.3 0 53.6 36.2 61.3 85.3H728c7.6-49.1 32-85.3 61.3-85.3 29.3 0 53.6 36.2 61.3 85.3H960V384z m0 341.3H850.6c-7.6 49.1-32 85.3-61.3 85.3-29.3 0-53.6-36.2-61.3-85.3h-69.4c-7.6 49.1-32 85.3-61.3 85.3-29.3 0-53.6-36.2-61.3-85.3h-69.4c-7.6 49.1-32 85.3-61.3 85.3s-53.6-36.2-61.3-85.3H64V896c0 35.3 28.7 64 64 64h768c35.3 0 64-28.7 64-64V725.3z" p-id="5281" fill="#4a4a4a"></path></svg>