<?xml version="1.0" standalone="no"?><!DOCTYPE svg PUBLIC "-//W3C//DTD SVG 1.1//EN" "http://www.w3.org/Graphics/SVG/1.1/DTD/svg11.dtd"><svg class="icon" width="200px" height="200.00px" viewBox="0 0 1024 1024" version="1.1" xmlns="http://www.w3.org/2000/svg"><path fill="#000" d="M802.133333 427.741867l0-98.5088-2.594133-5.188267-2.594133-7.7824-2.6112-7.765333-2.594133-5.188267-2.6112-2.594133-2.594133-2.577067-2.594133-5.205333-2.594133-2.577067-2.594133-5.188267-2.6112-2.594133-2.594133-5.188267-2.6112-2.577067-2.594133-2.594133-2.594133-2.577067-5.205333-5.205333-5.2224-2.577067-2.594133-2.594133-2.6112-2.577067-2.594133-2.594133-2.594133-2.577067-2.594133-2.594133-5.2224-2.577067-2.594133-2.594133-2.6112-2.577067-2.594133-2.594133-2.594133-5.188267-5.205333-36.3008-2.6112-20.736-2.594133-15.547733-2.6112-18.141867-2.594133-23.330133-2.594133-15.547733-2.594133-18.141867L703.163733 82.944l-101.5808 0-2.6112 5.188267-2.594133 31.112533-2.594133 28.5184-2.594133 23.330133-2.594133 25.924267-2.594133 33.706667-2.6112 7.7824-2.6112 2.594133-2.594133 2.577067-5.205333 2.594133-2.594133 2.577067-2.594133 2.594133-5.2224 2.577067-2.6112 2.594133-2.594133 2.577067-2.594133 2.594133-5.205333 2.577067-2.6112 2.594133-2.594133 5.188267-2.6112 5.188267-2.594133 2.594133-2.594133 5.188267-2.594133 2.577067-2.594133 5.188267-2.594133 5.205333-2.6112 2.577067-2.594133 7.7824-2.6112 10.359467-2.594133 7.7824-2.594133 18.141867 0 637.730133 2.594133 7.7824 2.594133 5.188267 2.6112 2.577067 5.2224 2.594133 2.594133 2.594133 7.799467 2.577067 5.2224 2.594133 10.410667 2.577067 7.816533 2.594133 13.021867 2.577067 15.633067 2.594133 20.8384 2.577067L638.0544 1024l49.476267 0 36.471467-2.594133 13.021867-2.577067 18.2272-2.594133 10.410667-2.577067 5.205333-2.594133 7.8336-2.577067 5.205333-2.594133 7.816533-2.577067 2.594133-2.594133 2.6112-5.188267 2.594133-2.594133L802.133333 990.293333l0-147.7632-114.602667 0L687.530667 427.741867 802.133333 427.741867zM213.504 541.815467l2.594133 15.547733 2.6112 15.547733 2.594133 10.359467 2.6112 12.970667 2.594133 10.359467L229.137067 614.4l2.594133 7.7824 2.6112 7.765333 2.594133 7.7824 2.6112 5.188267 2.594133 7.7824 5.2224 10.359467 2.594133 5.188267 2.6112 2.577067 2.594133 5.188267 2.6112 2.594133 2.594133 5.188267 2.6112 2.594133 2.594133 2.577067 2.6112 2.594133 2.6112 2.577067 2.594133 2.594133 2.6112 2.577067 2.594133 2.594133 2.6112 2.577067 10.410667 5.205333 2.6112 2.577067 7.816533 2.594133 36.471467 0 5.205333-2.594133 5.205333-2.577067 5.205333-2.594133 2.6112-2.594133 5.205333-2.577067 2.594133-2.594133 2.6112-2.577067 2.594133-2.594133 2.6112-2.577067 2.594133-2.594133 2.6112-5.188267 2.594133-2.577067 2.6112-5.205333 2.6112-2.577067 2.594133-5.188267 2.6112-5.188267 2.594133-5.188267 2.6112-5.188267 2.594133-5.188267 2.6112-7.7824 2.594133-7.7824 2.6112-7.765333L408.849067 614.4l2.6112-10.359467 2.6112-7.7824 2.594133-12.970667 2.6112-12.9536 2.594133-12.970667 2.6112-15.547733 2.594133-18.141867 2.6112-23.330133 0-18.141867L208.298667 482.2016l0 12.970667 2.6112 31.095467L213.504 541.815467zM153.6 404.411733l2.594133 41.489067 2.6112 36.283733 2.6112 23.330133 2.594133 18.141867 2.6112 18.141867 2.594133 18.141867 2.6112 10.359467 2.594133 12.9536 2.6112 15.5648 2.594133 7.765333 2.6112 10.376533 2.6112 10.359467 2.594133 7.765333 2.6112 7.7824 2.594133 7.7824 2.6112 7.765333 2.594133 5.188267 2.6112 5.188267 2.594133 7.7824 2.6112 5.188267 2.594133 2.594133 5.2224 10.359467 2.594133 5.188267 2.6112 5.188267 2.594133 2.594133 2.6112 2.577067 2.594133 5.188267 2.6112 2.594133 2.594133 2.577067 2.6112 2.594133 2.594133 2.577067 2.6112 2.594133 2.594133 2.577067 5.2224 5.205333 2.594133 2.577067 2.6112 2.594133 5.205333 2.577067 2.594133 2.594133 5.205333 2.577067 5.2224 2.594133 5.205333 2.577067 5.205333 2.594133 7.816533 2.577067 15.633067 2.594133 28.654933 0 15.633067-2.594133 7.816533-2.577067 5.205333-2.594133 5.205333-2.577067 5.205333-2.594133 5.205333-2.577067 2.594133-2.594133 5.2224-2.577067 2.594133-2.594133 2.6112-2.577067 2.594133-2.594133 2.6112-2.594133 2.594133-2.577067 2.6112-2.594133 2.594133-2.577067 2.6112-2.594133 2.594133-2.577067 2.6112-5.188267 2.6112-2.594133 2.594133-2.577067 2.6112-5.205333 2.594133-2.577067 2.6112-5.188267 2.594133-5.188267 2.6112-5.188267 2.594133-2.594133 2.6112-7.7824 2.594133-5.188267 2.6112-5.188267 2.6112-7.765333 2.594133-7.7824 2.6112-5.188267 2.594133-7.7824 2.6112-10.359467L455.7312 614.4l2.6112-7.7824 2.594133-12.9536 2.6112-10.376533 2.6112-12.9536 2.594133-15.5648 2.6112-15.547733 2.594133-15.547733 2.6112-20.736 2.594133-31.112533 2.6112-28.5184 2.594133-41.489067 0-119.2448L153.6 282.5728 153.6 404.411733zM458.717867 311.210667l-3.003733 5.051733-2.594133 101.12-2.6112 41.472-2.594133 25.941333-2.6112 20.736-2.594133 23.330133-2.6112 15.547733-2.6112 12.970667-2.594133 18.141867-2.6112 10.359467-2.594133 10.359467-2.6112 10.359467-2.594133 10.376533-2.6112 7.765333-2.594133 7.7824-2.6112 7.765333-2.594133 7.7824-2.6112 7.7824-2.6112 5.188267-2.594133 5.188267-2.6112 5.188267-2.594133 5.188267-2.6112 5.188267-2.594133 2.594133-2.6112 5.188267-2.594133 5.188267-2.6112 5.188267-2.594133 2.577067-5.2224 5.205333-2.594133 2.577067-2.6112 2.594133-2.594133 2.577067-2.6112 2.594133-2.594133 2.577067-2.6112 2.594133-5.205333 2.577067-5.205333 2.594133-5.205333 2.577067-2.6112 2.594133-18.2272 2.594133-18.2272 0-18.2272-2.594133-2.6112-2.594133-5.205333-2.577067-5.205333-2.594133L273.408 723.285333l-2.594133-2.594133-2.6112-2.577067-2.6112-2.594133-2.594133-2.577067-2.6112-2.594133-2.594133-2.577067-2.6112-2.594133-2.594133-2.594133-2.6112-2.577067-2.594133-5.188267-2.6112-5.188267-2.6112-2.594133-2.594133-5.188267-2.6112-5.188267-2.594133-5.188267-2.6112-2.594133-2.594133-7.765333-2.6112-5.188267-2.594133-7.7824-2.6112-7.7824-2.594133-5.188267-2.6112-7.765333-2.594133-10.359467-2.6112-7.7824-2.6112-10.359467-2.594133-12.970667-2.6112-10.359467-2.594133-12.970667-2.6112-18.141867-2.594133-15.547733-2.6112-15.547733-2.594133-28.5184-2.6112-25.941333-2.594133-33.706667-2.6112-77.7728-2.6112-36.3008L458.717867 311.210667zM414.0544 951.415467l-5.2224-2.594133-62.5152 0L346.3168 775.133867l-54.698667 0 0 173.687467-67.720533 0-2.6112 2.594133-2.594133 2.577067-2.6112 2.594133-2.594133 2.577067 0 20.753067 2.594133 5.188267 2.6112 2.577067 2.594133 2.594133 190.139733 0 2.6112-2.594133 2.594133-2.577067 2.6112-2.594133 0-23.330133-2.6112-5.188267L414.0544 951.415467zM604.177067 57.0368l2.6112 5.188267 2.594133 2.594133 2.594133 2.577067 2.594133 2.594133 7.816533 2.577067 59.921067 0 7.799467-2.577067 2.594133-2.594133 2.6112-2.577067 2.594133-2.594133 2.6112-5.188267 2.594133-5.188267L703.112533 20.736l-2.594133-5.188267-2.6112-5.188267-2.594133-2.577067L692.736 5.188267l-2.594133-2.594133L684.936533 0l-65.109333 0-5.2224 2.577067-5.205333 5.205333-2.594133 2.577067-2.6112 5.188267-2.594133 5.188267-2.6112 7.7824 0 15.547733 2.6112 10.359467L604.177067 57.0368z" /></svg>