<?xml version="1.0" standalone="no"?><!DOCTYPE svg PUBLIC "-//W3C//DTD SVG 1.1//EN" "http://www.w3.org/Graphics/SVG/1.1/DTD/svg11.dtd"><svg t="1508127122531" class="icon" style="" viewBox="0 0 1024 1024" version="1.1" xmlns="http://www.w3.org/2000/svg" p-id="10258" xmlns:xlink="http://www.w3.org/1999/xlink" width="200" height="200"><defs><style type="text/css"></style></defs><path d="M720.117 961.992c-134.982 0-241.867-106.862-241.867-241.883 0-134.973 106.88-241.848 241.867-241.848 135.005 0 241.888 106.875 241.888 241.848 0 135.022-106.883 241.883-241.888 241.883M720.117 523.268c-106.857 0-196.848 89.987-196.848 196.839 0 106.902 89.992 196.88 196.848 196.88 106.87 0 196.88-89.978 196.88-196.88 0-112.492-90.008-196.839-196.88-196.839M759.5 720.107h56.258v28.133h-67.5l-11.258 11.232v16.888h84.37v28.12h-84.37v73.138h-33.742v-73.138h-84.375v-28.12h84.375v-16.888l-6.768-10.089h-73.117v-28.12h61.875s-71.992-102.367-77.633-113.648h33.75c0 5.638 78.012 120.758 78.012 120.758s73.872-109.476 79.488-120.758h39.388c-5.643 5.638-78.755 112.492-78.755 112.492M208.263 618.898h196.862c11.25 0 22.505 11.245 22.505 22.477v5.607c0 11.282-11.255 22.527-22.505 22.527h-196.862c-11.258 0-22.5-11.245-22.5-22.527v-5.607c0-11.232 5.612-22.477 22.5-22.477M185.763 309.505c0-16.875 11.242-28.133 22.5-28.133h444.362c11.268 0 22.5 11.263 22.5 22.523v5.612c0 11.25-11.232 22.495-22.5 22.495h-444.362c-16.888 0-22.5-11.245-22.5-22.495M500.755 500.75h-292.492c-11.258 0-22.5-11.258-22.5-22.495v-5.63c0-11.245 11.242-22.505 22.5-22.505h298.12c11.242 0 22.482 11.258 22.482 22.505v5.63c-5.598 11.237-11.242 22.495-28.112 22.495M765.125 450.125c-11.268 0-22.5-11.263-22.5-22.495v-270.005c0-28.125-22.508-50.625-50.633-50.625h-534.352c-0.064 0-0.141-0.001-0.217-0.001-27.843 0-50.413 22.571-50.413 50.413 0 0.075 0 0.149 0.001 0.223v635.614c0 0.061 0 0.132 0 0.203 0 27.831 22.561 50.392 50.392 50.392 0.084 0 0.168 0 0.252-0.001h292.482c11.232 0 22.495 11.286 22.495 22.532s-11.258 22.478-22.495 22.478h-292.495c-56.242 0-95.633-45.008-95.633-95.603v-635.625c0-50.625 45.005-95.625 95.633-95.625h534.352c56.268 0 95.633 44.995 95.633 95.625v270.005c5.625 11.232-5.633 22.495-22.5 22.495z" fill="#333" p-id="10259"></path></svg>