<?xml version="1.0" standalone="no"?><!DOCTYPE svg PUBLIC "-//W3C//DTD SVG 1.1//EN" "http://www.w3.org/Graphics/SVG/1.1/DTD/svg11.dtd"><svg class="icon" width="200px" height="200.00px" viewBox="0 0 1024 1024" version="1.1" xmlns="http://www.w3.org/2000/svg"><path fill="#000" d="M511.609097 961.619254M329.409428 138.986471l149.592017 0 0 25.040303-149.592017 0 0-25.040303ZM503.504512 64.258513l-87.005586 0-25.78834 0-87.005586 0c0 0-12.632715 10.828626-8.120958 23.461341 4.511757 12.632715 13.535271 16.241916 22.558785 18.949584 9.023514 2.706645 9.92607 12.281721 9.92607 19.676132l62.641689 0 25.78834 0 62.641689 0c0-7.394411 0.902556-16.968463 9.92607-19.676132 9.023514-2.706645 18.047028-6.316869 22.558785-18.949584C516.137227 75.086116 503.504512 64.258513 503.504512 64.258513zM846.947562 751.548818c-7.436366-7.113001-34.650171-6.006807-34.650171-6.006807L561.938366 745.542011c0 0-27.213805-1.106194-34.650171 6.006807-3.874237 3.705392-5.725398 6.497994-4.077875 26.343995 3.597945 43.332924 22.333658 121.660874 105.168248 181.209108l117.479645 0c82.835613-59.548234 101.571327-137.877207 105.168248-181.209108C852.67296 758.046812 850.820776 755.253186 846.947562 751.548818zM501.394455 767.989255c-1.866511-22.48613 0.231267-25.651216 4.621251-29.849842 8.425903-8.05956 39.262212-6.80601 39.262212-6.80601l66.868967 0c10.782577-46.39568 18.553565-95.983051 18.553565-142.706189 0-274.010701-117.192096-381.099694-117.192096-381.099694-10.050913-16.953114-34.399461-30.825053-54.108339-30.825053L342.69092 176.702468c-19.708877 0-44.057425 13.870916-54.108339 30.825053 0 0-117.192096 107.088994-117.192096 381.099694 0 153.392576 83.556021 337.833285 83.556021 337.833285 8.133238 17.952884 30.913057 32.641421 50.621934 32.641421L496.522494 959.101921c19.708877 0 42.488697-14.688537 50.621934-32.641421 0 0 2.848884-6.296403 7.473205-17.461697C515.620457 856.507288 504.256642 802.471604 501.394455 767.989255z" /></svg>