<?xml version="1.0" standalone="no"?><!DOCTYPE svg PUBLIC "-//W3C//DTD SVG 1.1//EN" "http://www.w3.org/Graphics/SVG/1.1/DTD/svg11.dtd"><svg t="1508127249455" class="icon" style="" viewBox="0 0 1024 1024" version="1.1" xmlns="http://www.w3.org/2000/svg" p-id="11054" xmlns:xlink="http://www.w3.org/1999/xlink" width="200" height="200"><defs><style type="text/css"></style></defs><path d="M939.835112 423.323355c20.282952-13.462616 20.847817-13.283538 20.847817-31.225165l0-214.167754c0-34.545794-17.527189-52.078099-52.078099-52.078099L115.39517 125.852336c-34.545794 0-52.078099 17.532305-52.078099 52.078099l0 214.167754c0 18.686594 1.300622 20.676925 20.85191 31.225165 28.491914 13.268188 62.556755 40.075741 62.556755 83.414805 0 56.248072-35.355229 74.550926-61.327764 83.319637-18.277272 11.437493-22.081924 19.801998-22.081924 31.315216l0 224.647433c0 34.556027 17.532305 52.078099 52.078099 52.078099l793.210683 0c34.55091 0 52.078099-17.522072 52.078099-52.078099L960.682929 621.373013c0-22.775726-5.223978-19.517519-20.85191-31.230282-45.544289-23.477714-62.556755-44.379767-62.556755-83.409688C877.278357 467.708238 893.207142 448.285886 939.835112 423.323355L939.835112 423.323355 939.835112 423.323355zM929.46288 613.71459l0 221.936695c0 23.026436-8.194636 31.227212-31.232328 31.227212L125.769448 866.878496c-23.031553 0-31.227212-8.199753-31.227212-31.227212L94.542236 613.71459c48.489364-17.2335 83.409688-52.578496 83.409688-106.97643 0-54.397934-34.920324-89.738837-83.409688-106.97643L94.542236 188.302667c0-23.031553 8.194636-31.225165 31.227212-31.225165l772.461103 0c23.031553 0 31.232328 8.193613 31.232328 31.225165l0 211.459063c-48.484248 17.2335-83.414805 52.578496-83.414805 106.97643C846.048075 561.136094 880.978632 596.482113 929.46288 613.71459L929.46288 613.71459 929.46288 613.71459zM709.10003 684.509982 316.994678 684.509982c-7.014764 0-12.698207 5.695722-12.698207 12.703323l0 23.802102c0 7.013741 5.683443 12.69309 12.698207 12.69309l392.105353 0c7.009647 0 12.698207-5.680373 12.698207-12.69309l0-23.802102C721.798237 690.205705 716.113771 684.509982 709.10003 684.509982L709.10003 684.509982 709.10003 684.509982zM709.10003 553.092907 316.994678 553.092907c-7.014764 0-12.698207 5.683443-12.698207 12.703323l0 23.801079c0 7.009647 5.683443 12.69309 12.698207 12.69309l392.105353 0c7.009647 0 12.698207-5.683443 12.698207-12.69309l0-23.801079C721.798237 558.77635 716.113771 553.092907 709.10003 553.092907L709.10003 553.092907 709.10003 553.092907zM709.10003 421.663552 316.994678 421.663552c-7.014764 0-12.698207 5.690606-12.698207 12.703323l0 23.802102c0 7.008624 5.683443 12.69309 12.698207 12.69309l392.105353 0c7.009647 0 12.698207-5.685489 12.698207-12.69309l0-23.796986C721.798237 427.354158 716.113771 421.663552 709.10003 421.663552L709.10003 421.663552 709.10003 421.663552zM709.10003 290.24136 316.994678 290.24136c-7.014764 0-12.698207 5.688559-12.698207 12.698207l0 23.806195c0 7.009647 5.683443 12.69309 12.698207 12.69309l392.105353 0c7.009647 0 12.698207-5.683443 12.698207-12.69309l0-23.801079C721.798237 295.92992 716.113771 290.24136 709.10003 290.24136L709.10003 290.24136 709.10003 290.24136zM709.10003 290.24136" p-id="11055"></path></svg>