<?xml version="1.0" standalone="no"?><!DOCTYPE svg PUBLIC "-//W3C//DTD SVG 1.1//EN" "http://www.w3.org/Graphics/SVG/1.1/DTD/svg11.dtd"><svg t="1508127225597" class="icon" style="" viewBox="0 0 1024 1024" version="1.1" xmlns="http://www.w3.org/2000/svg" p-id="10936" xmlns:xlink="http://www.w3.org/1999/xlink" width="200" height="200"><defs><style type="text/css"></style></defs><path d="M882.678344 38.139645H141.320633c-60.241013 0-109.25124 49.010227-109.25124 109.25124s49.010227 109.25124 109.25124 109.25124h18.739806v-40.932248h-18.739806c-37.670971 0-68.318992-30.648021-68.318992-68.318992s30.648021-68.318992 68.318992-68.318992h741.357711c37.670971 0 68.320015 30.648021 68.320015 68.318992s-30.648021 68.318992-68.320015 68.318992h-19.435655v40.932248h19.435655c60.242036 0 109.252263-49.010227 109.252263-109.25124S942.92038 38.139645 882.678344 38.139645z" fill="#3E3A39" p-id="10937"></path><path d="M796.928355 865.089757c0 44.023656-35.814694 79.83835-79.83835 79.83835h-410.182057c-44.022633 0-79.83835-35.814694-79.838349-79.83835V127.58684h-40.932248v737.502917c0 66.592674 54.1769 120.770598 120.770597 120.770598h410.182057c66.592674 0 120.770598-54.1769 120.770598-120.770598V127.58684h-40.932248v737.502917z" fill="#3E3A39" p-id="10938"></path><path d="M389.996318 468.044906c13.96199-12.465916 37.137829-18.786878 68.883857-18.786879v-40.932248c-42.107003 0-74.454736 9.819646-96.13757 29.179576-16.679891 14.876826-27.228131 32.107255-31.513738 51.417044h-44.028773v40.932248h42.031279c0.74292 16.258289 4.275373 36.476773 21.094434 54.695716 19.141966 20.738323 32.444946 30.507828 71.585385 30.507828 29.940916 0 57.68991-10.577916 76.133981-29.021988 21.115923-21.115923 29.510104-43.002396 33.69952-56.180533h132.331911c-2.425236 9.42465-7.826246 17.20894-16.500812 23.955598-13.703093 10.657734-30.621415 15.838733-51.720966 15.838733v40.932248c30.125111 0 55.982012-8.229428 76.851319-24.460088 18.690688-14.538111 29.933753-33.81106 32.969903-56.265468h45.776579v-40.932248h-49.329498c-5.194302-18.689664-14.874779-34.585703-28.912494-47.418986-18.532075-16.921391-42.221614-25.501814-70.408583-25.501813-21.938662 0-41.576931 5.676279-58.368362 16.870226-15.615653 10.411117-25.154913 28.369118-38.356586 53.224202l-1.50119 2.825348H374.176005c3.298116-7.477298 8.55177-14.395872 15.820313-20.878516z m177.143513-1.115404c10.088776-6.726192 21.754466-9.995655 35.663245-9.995655 17.900695 0 31.903617 4.840238 42.798758 14.787798 5.439896 4.974291 9.740852 10.6782 12.941753 17.200754h-107.47785c6.033413-10.783601 11.259438-18.783809 16.074094-21.992897z m-79.103616 62.925145c-3.773953 8.325619-9.520841 17.823947-18.934234 27.237341-10.665921 10.665921-28.306696 17.033955-47.190789 17.033955-25.50386 0-28.575826-3.328815-41.508369-17.337877-7.264451-7.870248-9.499351-16.108886-10.165524-26.932396h117.798916z" fill="#3E3A39" p-id="10939"></path></svg>